<svg width="40" height="36" viewBox="0 0 40 36" fill="currentColor" xmlns="http://www.w3.org/2000/svg">
<path d="M8.53689 0.00302503C8.3576 0.00362774 8.18583 0.0750449 8.05927 0.202208C7.93301 0.32937 7.86249 0.501437 7.8631 0.680733V4.07409H1.10252C0.922627 4.07349 0.749958 4.14461 0.622487 4.27207C0.495325 4.39923 0.424207 4.5719 0.424808 4.75181V28.9585C0.424206 29.1384 0.495322 29.311 0.622487 29.4382C0.74995 29.5654 0.922619 29.6368 1.10252 29.6359H14.5501L12.7622 33.8468H9.72232C9.54061 33.8429 9.36493 33.9122 9.23505 34.039C9.10517 34.1662 9.03195 34.3401 9.03195 34.5218C9.03195 34.7035 9.10518 34.8774 9.23505 35.0045C9.36493 35.1314 9.54061 35.2007 9.72232 35.1968H30.2824C30.4642 35.2007 30.6395 35.1314 30.7694 35.0045C30.8993 34.8774 30.9725 34.7035 30.9725 34.5218C30.9725 34.3401 30.8993 34.1662 30.7694 34.039C30.6395 33.9122 30.4642 33.8429 30.2824 33.8468H27.2371L25.4495 29.6359H38.9017C39.2744 29.6344 39.5755 29.3312 39.574 28.9585V4.75182C39.5755 4.37906 39.2744 4.07561 38.9017 4.0741H32.14V0.68074H32.1397C32.1403 0.500843 32.0692 0.328175 31.942 0.201005C31.8148 0.0735415 31.6422 0.00242331 31.4619 0.00302503H8.53689ZM9.20918 1.35302H30.7891V23.5462H9.20918V1.35302ZM13.1959 5.07995V5.08025C12.8229 5.09833 12.5354 5.41504 12.5532 5.7881C12.5709 6.16085 12.8877 6.44893 13.2604 6.43145H26.738C26.9173 6.43145 27.0894 6.36064 27.2163 6.23378C27.3431 6.10691 27.4143 5.93515 27.4143 5.75585C27.4143 5.57656 27.3431 5.40449 27.2163 5.27793C27.0894 5.15107 26.9173 5.07995 26.738 5.08025H13.2604C13.239 5.07905 13.2173 5.07905 13.1959 5.08025L13.1959 5.07995ZM1.77492 5.42408H7.86319V23.5465H1.77492V5.42408ZM32.1391 5.42408H38.2235V23.5465H32.1391V5.42408ZM13.26 11.7721C13.0807 11.7718 12.9086 11.8429 12.7817 11.9698C12.6549 12.0966 12.5837 12.2684 12.5837 12.4477C12.5837 12.627 12.6549 12.799 12.7817 12.9256C12.9086 13.0525 13.0807 13.1236 13.26 13.1233H26.7376C27.1103 13.123 27.4126 12.8207 27.4126 12.4477C27.4126 12.0749 27.1103 11.7724 26.7376 11.7721H13.26ZM13.1955 18.4693C12.829 18.4952 12.5503 18.8089 12.5678 19.176C12.5853 19.543 12.8926 19.8287 13.26 19.8193H26.7376C26.9193 19.8232 27.0947 19.7539 27.2246 19.6271C27.3544 19.4999 27.4277 19.326 27.4277 19.1443C27.4277 18.9626 27.3544 18.7887 27.2246 18.6616C27.0947 18.5347 26.9193 18.4654 26.7376 18.4693H13.26C13.2386 18.4684 13.2169 18.4684 13.1955 18.4693H13.1955ZM1.77446 24.8978H38.2229V28.2861L24.4259 28.2857H1.77369L1.77446 24.8978ZM16.0204 29.636H23.9824L25.7714 33.847L14.2316 33.8467L16.0204 29.636Z" fill="currentColor"/>
</svg>
