<svg width="37" height="37" viewBox="0 0 37 37" fill="currentColor" xmlns="http://www.w3.org/2000/svg">
<path d="M18.5004 36.008C13.8303 36.008 9.35161 34.1526 6.05001 30.8506C2.74801 27.5486 0.892578 23.0699 0.892578 18.4002C0.892578 13.7306 2.74801 9.25146 6.05001 5.94986C9.35202 2.64785 13.8307 0.792419 18.5004 0.792419C23.17 0.792419 27.6491 2.64785 30.9507 5.94986C34.2527 9.25187 36.1082 13.7306 36.1082 18.4002C36.1082 23.0699 34.2527 27.549 30.9507 30.8506C27.6487 34.1526 23.17 36.008 18.5004 36.008V36.008ZM18.5004 1.92801C14.1318 1.92801 9.94193 3.66336 6.85231 6.75216C3.76351 9.84137 2.02817 14.0313 2.02817 18.4002C2.02817 22.7692 3.76351 26.9587 6.85231 30.0483C9.94152 33.1371 14.1314 34.8724 18.5004 34.8724C22.8693 34.8724 27.0588 33.1371 30.1484 30.0483C33.2372 26.9591 34.9726 22.7692 34.9726 18.4002C34.9726 14.0313 33.2372 9.84178 30.1484 6.75216C27.0592 3.66336 22.8693 1.92801 18.5004 1.92801V1.92801Z" fill="currentColor"/>
<path d="M18.5 22.944C18.1862 22.944 17.9318 22.6896 17.9318 22.3758V19.5358C17.9318 19.222 18.1862 18.9681 18.5 18.9681C19.479 18.9681 20.4184 18.579 21.1106 17.8864C21.8031 17.1943 22.1918 16.2553 22.1918 15.2759C22.1918 14.2968 21.8031 13.3579 21.1106 12.6653C20.4184 11.9731 19.479 11.5841 18.5 11.5841C17.521 11.5841 16.5816 11.9731 15.8894 12.6653C15.1969 13.3579 14.8082 14.2969 14.8082 15.2759C14.8082 15.5897 14.5538 15.844 14.24 15.844C13.9262 15.844 13.6719 15.5897 13.6719 15.2759C13.6719 14.0282 14.1548 12.8289 15.0194 11.9295C15.8839 11.0302 17.0633 10.5004 18.3098 10.4513C19.5567 10.4022 20.7738 10.8376 21.7064 11.6661C22.6391 12.495 23.2152 13.6523 23.3131 14.896C23.4109 16.1401 23.0238 17.3735 22.2322 18.3379C21.441 19.3027 20.3071 19.9231 19.0682 20.0701V22.376C19.0682 22.5265 19.0084 22.6711 18.9018 22.7777C18.7952 22.8843 18.6506 22.9441 18.5 22.9441L18.5 22.944Z" fill="currentColor"/>
<path d="M18.5003 26.352C18.0407 26.352 17.6267 26.0755 17.4508 25.6507C17.2748 25.2264 17.3723 24.7379 17.6972 24.413C18.0221 24.0881 18.5106 23.9906 18.9349 24.1666C19.3597 24.3425 19.6362 24.7569 19.6362 25.2161C19.6362 25.5177 19.5166 25.8065 19.3034 26.0196C19.0906 26.2324 18.8014 26.3521 18.5003 26.3521L18.5003 26.352Z" fill="currentColor"/>
</svg>
