<svg width="46" height="30" viewBox="0 0 46 30" fill="none" xmlns="http://www.w3.org/2000/svg">
<path d="M3.48366 12.4816V29.2624C3.48366 29.5665 3.72667 29.8706 4.09183 29.8706C4.45656 29.8706 4.7 29.6276 4.7 29.2624V12.968L8.7736 14.731V23.3039C8.7736 23.5469 8.89532 23.7297 9.13834 23.851L22.8183 29.7486C22.879 29.8092 23.0007 29.8092 23.0614 29.8092C23.122 29.8092 23.2437 29.8092 23.3044 29.7486L36.9844 23.851C37.2274 23.7293 37.3491 23.5469 37.3491 23.3039L37.3495 14.731L44.8888 11.448C45.1319 11.3263 45.2536 11.1439 45.2536 10.9009C45.2536 10.6579 45.1319 10.4751 44.8888 10.3538L23.244 0.990386C23.1223 0.929739 22.94 0.929739 22.7576 0.990386L1.11278 10.3534C0.869765 10.4751 0.748047 10.6575 0.748047 10.9005C0.748047 11.1435 0.869765 11.3263 1.11278 11.4476L3.48366 12.4816ZM36.0725 22.9392L23.0005 28.5934L9.92846 22.9392V15.2782L22.7573 20.8718H23.0003C23.0609 20.8718 23.1826 20.8718 23.2433 20.8111L36.0721 15.2175L36.0725 22.9392ZM23.0005 2.20641L43.1253 10.9617L23.0005 19.6559L2.87566 10.9006L23.0005 2.20641Z" fill="currentColor"/>
</svg>
