<svg fill="currentColor" width="32px" height="32px" viewBox="0 0 32 32" enable-background="new 0 0 32 32" id="_x3C_Layer_x3E_" version="1.1" xml:space="preserve" xmlns="http://www.w3.org/2000/svg" xmlns:xlink="http://www.w3.org/1999/xlink">
<path d="M13.89,26.034l-1.4-1.244c-0.7-0.63-1.24-1.41-1.58-2.29L8.9,16.95c-0.17-0.47,0.05-0.99,0.5-1.2c0.24-0.11,0.48-0.16,0.73-0.16 c0.63,0,1.24,0.351,1.55,0.95l1.84,3.7c0.62-0.46,0.98-1.19,0.98-1.95V6.5C14.5,5.67,15.17,5,16,5s1.5,0.67,1.5,1.5v8 c0-0.83,0.67-1.5,1.5-1.5s1.5,0.67,1.5,1.5V15c0-0.83,0.67-1.5,1.5-1.5s1.5,0.67,1.5,1.5v1c0-0.83,0.67-1.5,1.5-1.5 s1.5,0.67,1.5,1.5v8.09c0,0.675-0.203,1.333-0.574,1.891" fill="none" id="XMLID_3863_" stroke="currentColor" stroke-linecap="round" stroke-linejoin="round" stroke-miterlimit="10"/>
<polyline fill="none" id="XMLID_3862_" points="13.5,30.5 13.5,27.5 26.5,27.5 26.5,30.5" stroke="currentColor" stroke-linecap="round" stroke-linejoin="round" stroke-miterlimit="10"/>
<path d="M10.477,5.541C10.492,5.691,10.5,5.845,10.5,6c0,2.479-2.009,4.488-4.488,4.488S1.524,8.479,1.524,6s2.01-4.488,4.488-4.488 c0.793,0,1.539,0.207,2.186,0.568" fill="none" id="XMLID_3860_" stroke="currentColor" stroke-linecap="round" stroke-linejoin="round" stroke-miterlimit="10"/>
<polyline fill="none" id="XMLID_3794_" points="10.313,2.842 6.012,7.143 3.94,5.071" stroke="currentColor" stroke-linecap="round" stroke-linejoin="round" stroke-miterlimit="10"/>
<circle cx="26" cy="6" fill="none" id="XMLID_3793_" r="4.5" stroke="currentColor" stroke-miterlimit="10"/>
<line fill="none" id="XMLID_3791_" stroke="currentColor" stroke-linecap="round" stroke-linejoin="round" stroke-miterlimit="10" x1="27.5" x2="24.5" y1="4.5" y2="7.5"/>
<path d="M13.89,26.034l-1.4-1.244c-0.7-0.63-1.24-1.41-1.58-2.29L8.9,16.95c-0.17-0.47,0.05-0.99,0.5-1.2c0.24-0.11,0.48-0.16,0.73-0.16 c0.63,0,1.24,0.351,1.55,0.95l1.84,3.7c0.62-0.46,0.98-1.19,0.98-1.95V6.5C14.5,5.67,15.17,5,16,5s1.5,0.67,1.5,1.5v8 c0-0.83,0.67-1.5,1.5-1.5s1.5,0.67,1.5,1.5V15c0-0.83,0.67-1.5,1.5-1.5s1.5,0.67,1.5,1.5v1c0-0.83,0.67-1.5,1.5-1.5 s1.5,0.67,1.5,1.5v8.09c0,0.675-0.203,1.333-0.574,1.891" fill="none" id="XMLID_3575_" stroke="currentColor" stroke-linecap="round" stroke-linejoin="round" stroke-miterlimit="10"/>
<polyline fill="none" id="XMLID_3574_" points="13.5,30.5 13.5,27.5 26.5,27.5 26.5,30.5" stroke="currentColor" stroke-linecap="round" stroke-linejoin="round" stroke-miterlimit="10"/>
<path d="M10.477,5.541C10.492,5.691,10.5,5.845,10.5,6c0,2.479-2.009,4.488-4.488,4.488S1.524,8.479,1.524,6s2.01-4.488,4.488-4.488 c0.793,0,1.539,0.207,2.186,0.568" fill="none" id="XMLID_3572_" stroke="currentColor" stroke-linecap="round" stroke-linejoin="round" stroke-miterlimit="10"/>
<polyline fill="none" id="XMLID_3571_" points="10.313,2.842 6.012,7.143 3.94,5.071" stroke="currentColor" stroke-linecap="round" stroke-linejoin="round" stroke-miterlimit="10"/>
<circle cx="26" cy="6" fill="none" id="XMLID_3570_" r="4.5" stroke="currentColor" stroke-linecap="round" stroke-linejoin="round" stroke-miterlimit="10"/>
<line fill="none" id="XMLID_3569_" stroke="currentColor" stroke-linecap="round" stroke-linejoin="round" stroke-miterlimit="10" x1="27.5" x2="24.5" y1="7.5" y2="4.5"/>
<line fill="none" id="XMLID_3568_" stroke="currentColor" stroke-linecap="round" stroke-linejoin="round" stroke-miterlimit="10" x1="27.5" x2="24.5" y1="4.5" y2="7.5"/>
</svg>