<svg width="36" height="36" viewBox="0 0 36 36" fill="currentColor" xmlns="http://www.w3.org/2000/svg">
<path d="M14.8951 0.720155H3.58906C2.82878 0.721963 2.10013 1.02481 1.56252 1.5624C1.02491 2.1 0.72205 2.82863 0.720276 3.58895V14.895C0.720276 15.074 0.791392 15.2458 0.917954 15.3723C1.04452 15.4989 1.21628 15.57 1.39528 15.57H6.12028C6.29927 15.57 6.47104 15.4989 6.5976 15.3723C6.72416 15.2458 6.79528 15.074 6.79528 14.895V14.22C6.79528 13.862 6.93751 13.5185 7.19063 13.2654C7.44375 13.0122 7.78729 12.87 8.14528 12.87C8.50326 12.87 8.8468 13.0122 9.09992 13.2654C9.35304 13.5185 9.49528 13.862 9.49528 14.22V14.895C9.49528 15.074 9.56639 15.2458 9.69295 15.3723C9.81952 15.4989 9.99128 15.57 10.1703 15.57H14.8953C15.0743 15.57 15.246 15.4989 15.3726 15.3723C15.4992 15.2458 15.5703 15.074 15.5703 14.895V10.845C16.5349 10.845 17.4263 10.3303 17.9086 9.49501C18.3908 8.6597 18.3908 7.63031 17.9086 6.79501C17.4262 5.9597 16.5348 5.445 15.5703 5.445V1.395C15.5703 1.21601 15.4992 1.04424 15.3726 0.91768C15.246 0.791119 15.0743 0.720001 14.8953 0.720001L14.8951 0.720155ZM16.9201 8.14516C16.9201 8.50315 16.7779 8.84668 16.5248 9.0998C16.2716 9.35293 15.9281 9.49516 15.5701 9.49516H14.8951C14.5224 9.49516 14.2201 9.79741 14.2201 10.1702V14.2202H10.8451C10.8451 13.2556 10.3304 12.3642 9.49512 11.8818C8.65982 11.3997 7.63042 11.3997 6.79512 11.8818C5.95982 12.3643 5.44512 13.2556 5.44512 14.2202H2.07012V3.5891C2.07012 3.18621 2.23013 2.79993 2.5149 2.51512C2.79966 2.2303 3.18598 2.07034 3.58888 2.07034H14.2199V6.12035C14.2199 6.29934 14.2911 6.47111 14.4176 6.59767C14.5442 6.72423 14.7159 6.79534 14.8949 6.79534H15.5699C15.9279 6.79534 16.2715 6.93758 16.5246 7.1907C16.7777 7.44382 16.9199 7.78736 16.9199 8.14535L16.9201 8.14516Z" fill="currentColor"/>
<path d="M22.3202 9.49515H21.6452C21.2724 9.49515 20.9702 9.7974 20.9702 10.1702V14.8952C20.9702 15.0741 21.0413 15.2459 21.1678 15.3725C21.2944 15.499 21.4662 15.5702 21.6452 15.5702H25.6951C25.6951 16.5347 26.2098 17.4261 27.0451 17.9085C27.8804 18.3907 28.9098 18.3907 29.7451 17.9085C30.5804 17.4261 31.0951 16.5347 31.0951 15.5702H35.1451C35.3241 15.5702 35.4959 15.499 35.6224 15.3725C35.749 15.2459 35.8201 15.0741 35.8201 14.8952V3.5891C35.8183 2.82881 35.5155 2.10016 34.9779 1.56255C34.4403 1.02494 33.7117 0.722081 32.9513 0.720306H21.6453C21.2726 0.720306 20.9703 1.02255 20.9703 1.39531V6.12031C20.9703 6.2993 21.0414 6.47107 21.168 6.59763C21.2945 6.72419 21.4663 6.79531 21.6453 6.79531H22.3203C22.6783 6.79531 23.0218 6.93754 23.2749 7.19066C23.5281 7.44379 23.6703 7.78732 23.6703 8.14531C23.6703 8.5033 23.5281 8.84683 23.2749 9.09995C23.0218 9.35307 22.6783 9.49531 22.3203 9.49531L22.3202 9.49515ZM22.3202 5.44515V2.07015H32.9512C33.3541 2.07015 33.7404 2.23016 34.0252 2.51493C34.31 2.79969 34.4699 3.18601 34.4699 3.58891V14.22H30.4199C30.0472 14.22 29.7449 14.5222 29.7449 14.895V15.57C29.7449 15.928 29.6027 16.2715 29.3496 16.5246C29.0965 16.7777 28.7529 16.92 28.395 16.92C28.037 16.92 27.6934 16.7777 27.4403 16.5246C27.1872 16.2715 27.045 15.928 27.045 15.57V14.895C27.045 14.716 26.9738 14.5442 26.8473 14.4176C26.7207 14.2911 26.549 14.22 26.37 14.22H22.32V10.845C23.2846 10.845 24.1759 10.3303 24.6583 9.49497C25.1405 8.65967 25.1405 7.63027 24.6583 6.79497C24.1759 5.95966 23.2845 5.44497 22.32 5.44497L22.3202 5.44515Z" fill="currentColor"/>
<path d="M20.9701 25.6951C20.0055 25.6951 19.1141 26.2098 18.6317 27.0451C18.1496 27.8805 18.1496 28.9098 18.6317 29.7451C19.1142 30.5805 20.0056 31.0951 20.9701 31.0951V35.1451C20.9701 35.3241 21.0412 35.4959 21.1678 35.6225C21.2943 35.749 21.4661 35.8201 21.6451 35.8201H32.9512C33.7114 35.8183 34.4401 35.5155 34.9777 34.9779C35.5153 34.4403 35.8182 33.7117 35.8199 32.9514V21.6453C35.8199 21.4663 35.7488 21.2945 35.6223 21.168C35.4957 21.0414 35.3239 20.9703 35.1449 20.9703H30.4199C30.0472 20.9703 29.7449 21.2726 29.7449 21.6453V22.3203C29.7449 22.6783 29.6027 23.0218 29.3496 23.2749C29.0965 23.5281 28.7529 23.6703 28.3949 23.6703C28.037 23.6703 27.6934 23.5281 27.4403 23.2749C27.1872 23.0218 27.0449 22.6783 27.0449 22.3203V21.6453C27.0449 21.4663 26.9738 21.2945 26.8473 21.168C26.7207 21.0414 26.5489 20.9703 26.3699 20.9703H21.6449C21.2722 20.9703 20.9699 21.2726 20.9699 21.6453L20.9701 25.6951ZM21.6451 27.0451C21.8241 27.0451 21.9959 26.974 22.1224 26.8475C22.249 26.7209 22.3201 26.5491 22.3201 26.3702V22.3202H25.6951C25.6951 23.2847 26.2098 24.1761 27.0451 24.6585C27.8804 25.1406 28.9098 25.1406 29.7451 24.6585C30.5804 24.1761 31.0951 23.2847 31.0951 22.3202H34.4701V32.9512C34.4701 33.3541 34.3101 33.7404 34.0253 34.0252C33.7406 34.31 33.3542 34.47 32.9513 34.47H22.3203V30.42C22.3203 30.241 22.2492 30.0692 22.1226 29.9426C21.996 29.8161 21.8243 29.745 21.6453 29.745H20.9703C20.6123 29.745 20.2688 29.6027 20.0156 29.3496C19.7625 29.0965 19.6203 28.753 19.6203 28.395C19.6203 28.037 19.7625 27.6934 20.0156 27.4403C20.2688 27.1872 20.6123 27.045 20.9703 27.045L21.6451 27.0451Z" fill="currentColor"/>
<path d="M0.720125 32.9512C0.721933 33.7115 1.02478 34.4402 1.56237 34.9778C2.09996 35.5154 2.82859 35.8182 3.58892 35.82H14.895C15.074 35.82 15.2457 35.7489 15.3723 35.6223C15.4989 35.4958 15.57 35.324 15.57 35.145V30.42C15.57 30.241 15.4989 30.0693 15.3723 29.9427C15.2457 29.8161 15.074 29.745 14.895 29.745H14.22C13.862 29.745 13.5185 29.6028 13.2653 29.3497C13.0122 29.0965 12.87 28.753 12.87 28.395C12.87 28.037 13.0122 27.6935 13.2653 27.4404C13.5185 27.1872 13.862 27.045 14.22 27.045H14.895C15.074 27.045 15.2457 26.9739 15.3723 26.8473C15.4989 26.7208 15.57 26.549 15.57 26.37V21.645C15.57 21.466 15.4989 21.2942 15.3723 21.1677C15.2457 21.0411 15.074 20.97 14.895 20.97H10.845C10.845 20.0054 10.3303 19.114 9.49498 18.6317C8.65967 18.1495 7.63028 18.1495 6.79497 18.6317C5.95967 19.1141 5.44497 20.0055 5.44497 20.97H1.39497C1.02222 20.97 0.719971 21.2723 0.719971 21.645L0.720125 32.9512ZM2.07013 22.3202H6.12013C6.29912 22.3202 6.47089 22.249 6.59745 22.1225C6.72401 21.9959 6.79513 21.8242 6.79513 21.6452V20.9702C6.79513 20.6122 6.93736 20.2686 7.19049 20.0155C7.44361 19.7624 7.78714 19.6202 8.14513 19.6202C8.50312 19.6202 8.84665 19.7624 9.09977 20.0155C9.35289 20.2686 9.49513 20.6122 9.49513 20.9702V21.6452C9.49513 21.8242 9.56625 21.9959 9.69281 22.1225C9.81937 22.249 9.99114 22.3202 10.1701 22.3202H14.2201V25.6952C13.2555 25.6952 12.3642 26.2099 11.8818 27.0452C11.3996 27.8805 11.3996 28.9099 11.8818 29.7452C12.3642 30.5805 13.2556 31.0952 14.2201 31.0952V34.4702H3.58907C3.18618 34.4702 2.7999 34.3102 2.51509 34.0254C2.23027 33.7406 2.07031 33.3543 2.07031 32.9514L2.07013 22.3202Z" fill="currentColor"/>
</svg>
