<svg width="28" height="31" viewBox="0 0 28 31" fill="none" xmlns="http://www.w3.org/2000/svg">
<path d="M23.2224 20.2922C22.9298 19.4819 22.743 18.6348 22.6671 17.7732C22.5722 16.7309 22.6405 15.6796 22.8692 14.6599L23.0886 13.6854C23.6304 11.4187 23.3222 9.02339 22.2263 6.98289C21.1303 4.94239 19.3281 3.40859 17.1834 2.69099C16.0375 2.32412 14.8305 2.20766 13.6388 2.34899C12.4471 2.49031 11.2967 2.88635 10.2604 3.51204C9.22581 4.13335 8.32471 4.9672 7.6124 5.96239C6.90008 6.95759 6.39159 8.09312 6.11812 9.2993L5.83825 10.5424C5.60822 11.5619 5.22045 12.536 4.68999 13.427C4.25334 14.1654 3.72304 14.8396 3.11329 15.4318C2.81826 15.72 2.59274 16.076 2.45491 16.4711C2.31709 16.8663 2.27082 17.2894 2.31984 17.7065C2.36648 18.1214 2.50803 18.5188 2.73275 18.8657C2.95746 19.2125 3.25883 19.4987 3.61181 19.7006C6.24203 21.2218 9.06509 22.3533 11.9986 23.0622C14.9311 23.7708 17.945 24.0501 20.9524 23.8919C21.3551 23.8727 21.7476 23.7541 22.0973 23.5461C22.4469 23.3381 22.7435 23.0466 22.9626 22.6959C23.1848 22.3444 23.3242 21.9437 23.3693 21.5262C23.4144 21.1086 23.3641 20.6859 23.2224 20.2922ZM21.3333 21.5929C21.2808 21.6781 21.2094 21.7489 21.1251 21.7996C21.0408 21.8502 20.946 21.8792 20.8487 21.8841C15.1688 22.1828 9.52256 20.8181 4.55649 17.9463C4.47139 17.8973 4.39888 17.8278 4.34507 17.7437C4.29125 17.6597 4.2577 17.5635 4.24722 17.4632C4.2345 17.3604 4.24546 17.256 4.2792 17.1585C4.31294 17.061 4.36851 16.9732 4.44135 16.9023C5.17816 16.1872 5.8194 15.3733 6.34801 14.4821C6.98655 13.4059 7.45341 12.23 7.7306 10.9998L8.01047 9.75669C8.42024 7.93661 9.51102 6.35973 11.0429 5.37296C12.5747 4.38619 14.4221 4.07035 16.1787 4.49492C16.3263 4.5306 16.4758 4.56673 16.6211 4.61734C18.2936 5.18614 19.6959 6.39089 20.545 7.98867C21.3941 9.58646 21.6269 11.4584 21.1965 13.227L20.9771 14.2015C20.4693 16.4613 20.6176 18.8262 21.4032 20.9989C21.4382 21.0959 21.4505 21.2002 21.4391 21.3031C21.4278 21.406 21.393 21.5046 21.3377 21.5909L21.3333 21.5929Z" fill="#6C6C6C"/>
<path d="M14.7436 24.8823C14.5266 24.7388 14.2636 24.6904 14.0122 24.7477C13.7608 24.8049 13.5416 24.9632 13.4028 25.1878C13.1865 25.5392 12.8702 25.8124 12.4977 25.9697C12.1252 26.127 11.7147 26.1606 11.323 26.066C10.9312 25.9713 10.5775 25.7529 10.3106 25.4411C10.0437 25.1292 9.87675 24.7392 9.83285 24.3249C9.80449 24.0595 9.67554 23.8167 9.47438 23.6498C9.27321 23.4829 9.0163 23.4057 8.76017 23.4351C8.50404 23.4645 8.26967 23.5981 8.10861 23.8065C7.94755 24.0149 7.87301 24.2811 7.90137 24.5465C7.98998 25.3743 8.32413 26.1532 8.85778 26.7761C9.39144 27.3989 10.0983 27.8349 10.8811 28.0241C11.6639 28.2133 12.4841 28.1464 13.2286 27.8325C13.9731 27.5186 14.6054 26.9733 15.0384 26.2716C15.1769 26.0468 15.2236 25.7742 15.1683 25.5138C15.113 25.2533 14.9603 25.0262 14.7436 24.8823Z" fill="#6C6C6C"/>
</svg>
