<svg width="17" height="16" viewBox="0 0 17 16" fill="none" xmlns="http://www.w3.org/2000/svg">
<path d="M6.94265 12.4751C8.44132 12.4751 9.84068 12.049 10.9782 11.3388L15.2576 15.079C15.4562 15.2526 15.718 15.3394 15.9888 15.3394C16.5757 15.3394 17 14.9448 17 14.4398C17 14.2031 16.9097 13.9822 16.7111 13.8086L12.4588 10.0842C13.3526 9.05845 13.8853 7.78807 13.8853 6.40721C13.8853 3.0695 10.7616 0.339355 6.94265 0.339355C3.11471 0.339355 0 3.0695 0 6.40721C0 9.74493 3.11471 12.4751 6.94265 12.4751ZM6.94265 11.1652C3.95433 11.1652 1.49867 9.01111 1.49867 6.40721C1.49867 3.80332 3.95433 1.64919 6.94265 1.64919C9.92193 1.64919 12.3866 3.80332 12.3866 6.40721C12.3866 9.01111 9.92193 11.1652 6.94265 11.1652Z" fill="#6C6C6C"/>
</svg>
