<svg width="154" height="154" viewBox="0 0 154 154" fill="none" xmlns="http://www.w3.org/2000/svg">
<path d="M77.5013 0.00375603C43.3417 -0.33554 11.9048 22.3401 2.65125 56.8326C-8.37266 97.7079 15.9898 139.737 56.9559 150.671C97.9233 161.668 140.045 137.362 151.001 96.4871C161.958 55.6135 137.663 13.5832 96.6965 2.65255C90.302 0.956075 83.8335 0.0725558 77.5044 0.00538978L77.5013 0.00375603ZM77.4342 3.80659C83.4929 3.87378 89.6169 4.69011 95.7427 6.3177C134.666 16.7065 157.736 56.6965 147.326 95.5341C136.913 134.373 96.8306 157.39 57.907 147.001C18.9821 136.545 -4.1549 96.6865 6.2597 57.7844C15.1031 24.9883 44.9765 3.4668 77.4376 3.8065L77.4342 3.80659ZM63.5533 41.2871C62.1928 41.2871 60.8322 41.7608 59.5389 42.3738C59.4717 42.3738 59.4012 42.3067 59.3373 42.3738C59.2701 42.3738 59.1996 42.3738 59.1324 42.441C59.0652 42.441 58.9275 42.5082 58.7898 42.5754H58.5882C58.3161 42.777 58.044 42.9819 57.9063 43.254C57.8391 43.3212 57.8391 43.3884 57.7685 43.4556C55.2523 45.3586 53.6164 48.2092 53.5491 51.1956L53.6163 97.2314L53.5491 102.052V102.119C53.6163 105.514 55.3867 108.84 58.5849 110.675C61.6453 112.51 65.3892 112.374 68.3153 110.813L112.549 85.349C112.892 85.144 113.164 84.8753 113.367 84.5343V84.4672C115.816 82.6329 117.654 79.9152 117.654 76.6584C117.654 72.9933 115.612 69.8003 112.617 68.0347L68.3825 42.574H68.3153C66.8875 41.7593 65.2549 41.2856 63.5535 41.2856L63.5533 41.2871ZM63.5533 45.0899C64.5746 45.0899 65.5958 45.4292 66.4793 45.9046L110.713 71.367C112.551 72.3849 113.774 74.3552 113.774 76.6612C113.774 78.9708 112.548 80.9377 110.643 82.0263C110.576 82.0263 110.438 82.0935 110.371 82.164L66.4807 107.487H66.4135C64.6431 108.438 62.3991 108.505 60.4924 107.42C58.5205 106.266 57.432 104.229 57.432 102.126V102.059L57.4992 97.2379L57.432 51.2021C57.432 49.0975 58.5205 47.1272 60.4924 45.975C61.4465 45.4308 62.5349 45.0915 63.5562 45.0915L63.5533 45.0899Z" fill="#131313"/>
</svg>
