<svg width="25" height="23" viewBox="0 0 25 23" fill="none" xmlns="http://www.w3.org/2000/svg">
<path d="M10.3792 18.6494C12.4844 18.6494 14.4501 18.0268 16.048 16.9892L22.0591 22.4539C22.3381 22.7075 22.7059 22.8343 23.0863 22.8343C23.9106 22.8343 24.5067 22.2579 24.5067 21.52C24.5067 21.1742 24.3799 20.8514 24.1009 20.5977L18.1278 15.1561C19.3832 13.6574 20.1315 11.8012 20.1315 9.78366C20.1315 4.90695 15.7436 0.917969 10.3792 0.917969C5.00215 0.917969 0.626953 4.90695 0.626953 9.78366C0.626953 14.6604 5.00215 18.6494 10.3792 18.6494ZM10.3792 16.7356C6.18156 16.7356 2.73212 13.5882 2.73212 9.78366C2.73212 5.97914 6.18156 2.83176 10.3792 2.83176C14.5642 2.83176 18.0263 5.97914 18.0263 9.78366C18.0263 13.5882 14.5642 16.7356 10.3792 16.7356Z" fill="#8E8E93"/>
</svg>
