<svg width="50" height="51" viewBox="0 0 50 51" fill="currentColor" xmlns="http://www.w3.org/2000/svg">
<path d="M11.6591 23.107L11.6591 34.1664C11.6591 34.3668 11.819 34.5672 12.0592 34.5672C12.2992 34.5672 12.4593 34.4071 12.4593 34.1664L12.4593 23.4275L15.1393 24.5894L15.1393 30.2394C15.1393 30.3996 15.2194 30.5201 15.3793 30.6L24.3793 34.4868C24.4192 34.5268 24.4993 34.5268 24.5392 34.5268C24.5791 34.5268 24.6592 34.5268 24.6991 34.4868L33.6991 30.6C33.8589 30.5198 33.939 30.3996 33.939 30.2394L33.9393 24.5894L38.8994 22.4258C39.0593 22.3455 39.1393 22.2254 39.1393 22.0652C39.1393 21.905 39.0593 21.7846 38.8994 21.7046L24.6594 15.5336C24.5793 15.4937 24.4593 15.4937 24.3393 15.5336L10.0993 21.7043C9.93945 21.7846 9.85938 21.9047 9.85938 22.0649C9.85938 22.2251 9.93945 22.3455 10.0993 22.4255L11.6591 23.107ZM33.0991 29.9991L24.4991 33.7255L15.8991 29.9991L15.8991 24.9501L24.3391 28.6365L24.499 28.6365C24.5389 28.6365 24.619 28.6365 24.6589 28.5966L33.0989 24.9101L33.0991 29.9991ZM24.4991 16.3351L37.7391 22.1053L24.4991 27.8352L11.2591 22.065L24.4991 16.3351Z" fill="currentColor"/>
</svg>
