<svg width="50" height="51" viewBox="0 0 50 51" fill="currentColor" xmlns="http://www.w3.org/2000/svg">
<path d="M25.0864 37.0917C21.7976 37.0917 18.6436 35.7827 16.3185 33.4533C13.9932 31.1238 12.6865 27.9643 12.6865 24.67C12.6865 21.3757 13.9932 18.2159 16.3185 15.8867C18.6439 13.5572 21.7979 12.2483 25.0864 12.2483C28.3749 12.2483 31.5292 13.5572 33.8542 15.8867C36.1796 18.2161 37.4862 21.3757 37.4862 24.67C37.4862 27.9643 36.1796 31.1241 33.8542 33.4533C31.5289 35.7827 28.3749 37.0917 25.0864 37.0917ZM25.0864 13.0494C22.0099 13.0494 19.0593 14.2736 16.8835 16.4527C14.7083 18.632 13.4862 21.5879 13.4862 24.67C13.4862 27.7521 14.7083 30.7077 16.8835 32.8873C19.059 35.0663 22.0097 36.2906 25.0864 36.2906C28.1631 36.2906 31.1134 35.0663 33.2892 32.8873C35.4644 30.708 36.6865 27.7521 36.6865 24.67C36.6865 21.5879 35.4644 18.6323 33.2892 16.4527C31.1137 14.2736 28.1631 13.0494 25.0864 13.0494Z" fill="currentColor"/>
<path d="M25.0866 27.8754C24.8656 27.8754 24.6865 27.6959 24.6865 27.4745L24.6865 25.471C24.6865 25.2497 24.8656 25.0705 25.0866 25.0705C25.7761 25.0705 26.4376 24.796 26.925 24.3074C27.4128 23.8191 27.6865 23.1567 27.6865 22.4658C27.6865 21.7751 27.4127 21.1127 26.925 20.6241C26.4376 20.1358 25.776 19.8613 25.0866 19.8613C24.3972 19.8613 23.7356 20.1358 23.2482 20.6241C22.7605 21.1127 22.4868 21.7751 22.4868 22.4658C22.4868 22.6871 22.3076 22.8666 22.0866 22.8666C21.8657 22.8666 21.6865 22.6871 21.6865 22.4658C21.6865 21.5856 22.0266 20.7395 22.6355 20.105C23.2443 19.4706 24.0749 19.0968 24.9527 19.0622C25.8307 19.0276 26.6879 19.3347 27.3447 19.9192C28.0015 20.504 28.4072 21.3204 28.4761 22.1978C28.545 23.0755 28.2724 23.9456 27.715 24.6259C27.1578 25.3065 26.3592 25.7442 25.4867 25.8479L25.4867 27.4746C25.4867 27.5809 25.4446 27.6829 25.3696 27.7581C25.2945 27.8333 25.1927 27.8755 25.0866 27.8755L25.0866 27.8754Z" fill="currentColor"/>
<path d="M25.0862 30.2798C24.7625 30.2798 24.471 30.0847 24.347 29.785C24.2232 29.4857 24.2918 29.1411 24.5206 28.9119C24.7494 28.6827 25.0934 28.6139 25.3922 28.738C25.6913 28.8621 25.8861 29.1545 25.8861 29.4785C25.8861 29.6912 25.8018 29.8949 25.6517 30.0453C25.5019 30.1954 25.2982 30.2798 25.0862 30.2798L25.0862 30.2798Z" fill="currentColor"/>
</svg>
