<svg width="50" height="51" viewBox="0 0 50 51" fill="currentColor" xmlns="http://www.w3.org/2000/svg">
<path d="M17.0145 13.7695C16.8896 13.7699 16.7699 13.8185 16.6817 13.9048C16.5938 13.9912 16.5446 14.1081 16.5451 14.2299L16.5451 16.5348L11.8354 16.5348C11.7101 16.5344 11.5898 16.5827 11.501 16.6693C11.4124 16.7557 11.3629 16.873 11.3633 16.9952L11.3633 33.4377C11.3629 33.5598 11.4124 33.6771 11.501 33.7635C11.5898 33.8499 11.7101 33.8984 11.8354 33.8978L21.2035 33.8978L19.958 36.7581L17.8403 36.7581C17.7137 36.7554 17.5913 36.8025 17.5008 36.8887C17.4103 36.975 17.3593 37.0931 17.3593 37.2166C17.3593 37.34 17.4103 37.4581 17.5008 37.5445C17.5913 37.6307 17.7137 37.6777 17.8403 37.6751L32.1632 37.6751C32.2898 37.6777 32.4119 37.6307 32.5024 37.5445C32.5929 37.4581 32.6439 37.34 32.6439 37.2166C32.6439 37.0931 32.5929 36.975 32.5024 36.8887C32.4119 36.8025 32.2898 36.7554 32.1632 36.7581L30.0417 36.7581L28.7964 33.8978L38.1677 33.8978C38.4273 33.8968 38.6371 33.6909 38.636 33.4377L38.636 16.9952C38.6371 16.742 38.4273 16.5359 38.1677 16.5348L33.4572 16.5348L33.4572 14.2299L33.457 14.2299C33.4574 14.1077 33.4079 13.9904 33.3193 13.904C33.2307 13.8174 33.1104 13.7691 32.9849 13.7695L17.0145 13.7695ZM17.4828 14.6865L32.5162 14.6865L32.5162 29.7614L17.4828 29.7614L17.4828 14.6865ZM20.2601 17.2181L20.2601 17.2183C20.0002 17.2305 19.7999 17.4457 19.8123 17.6991C19.8247 17.9523 20.0454 18.1479 20.305 18.1361L29.694 18.1361C29.8189 18.1361 29.9388 18.088 30.0272 18.0018C30.1156 17.9156 30.1651 17.799 30.1651 17.6772C30.1651 17.5554 30.1156 17.4385 30.0272 17.3525C29.9388 17.2664 29.8189 17.2181 29.694 17.2183L20.305 17.2183C20.2901 17.2174 20.275 17.2174 20.2601 17.2183L20.2601 17.2181ZM12.3038 17.4518L16.5451 17.4518L16.5451 29.7615L12.3038 29.7615L12.3038 17.4518ZM33.4566 17.4518L37.6952 17.4518L37.6952 29.7615L33.4566 29.7615L33.4566 17.4518ZM20.3047 21.7637C20.1798 21.7635 20.0599 21.8118 19.9716 21.898C19.8832 21.9842 19.8336 22.1008 19.8336 22.2226C19.8336 22.3444 19.8832 22.4613 19.9716 22.5473C20.0599 22.6334 20.1798 22.6817 20.3047 22.6815L29.6937 22.6815C29.9534 22.6813 30.1639 22.476 30.1639 22.2226C30.1639 21.9694 29.9534 21.7639 29.6937 21.7637L20.3047 21.7637ZM20.2598 26.3129C20.0045 26.3305 19.8103 26.5435 19.8225 26.7928C19.8347 27.0422 20.0488 27.2362 20.3047 27.2298L29.6937 27.2298C29.8203 27.2325 29.9425 27.1854 30.033 27.0993C30.1234 27.0129 30.1744 26.8948 30.1744 26.7713C30.1744 26.6479 30.1234 26.5298 30.033 26.4434C29.9425 26.3573 29.8203 26.3102 29.6937 26.3129L20.3047 26.3129C20.2898 26.3122 20.2747 26.3122 20.2598 26.3129H20.2598ZM12.3035 30.6794L37.6948 30.6794L37.6948 32.9809L28.0833 32.9807L12.303 32.9807L12.3035 30.6794ZM22.2278 33.8979L27.7743 33.8979L29.0206 36.7582L20.9816 36.758L22.2278 33.8979Z" fill="currentColor"/>
</svg>
