<svg width="40" height="40" viewBox="0 0 40 40" fill="currentColor" xmlns="http://www.w3.org/2000/svg">
<path d="M26.5398 27.1126C27.5255 26.4798 28.1878 25.45 28.3547 24.2907C28.5219 23.1313 28.1773 21.9567 27.4103 21.0712C26.6434 20.186 25.53 19.6772 24.3586 19.6772C23.1874 19.6772 22.0738 20.1859 21.3068 21.0712C20.5401 21.9567 20.1954 23.1313 20.3624 24.2907C20.5296 25.45 21.1917 26.4798 22.1774 27.1126C21.385 27.3737 20.6468 27.778 19.9999 28.305C18.9182 27.3525 17.6368 26.6547 16.2499 26.2626C17.7276 25.484 18.7774 24.0831 19.1098 22.4465C19.4424 20.8096 19.022 19.1103 17.9651 17.817C16.9082 16.5239 15.3263 15.7739 13.6562 15.7739C11.9862 15.7739 10.4042 16.5239 9.34732 17.817C8.2904 19.1103 7.87006 20.8096 8.20269 22.4465C8.53505 24.0831 9.58486 25.484 11.0625 26.2626C9.03326 26.8298 7.24509 28.0447 5.97011 29.7222C4.69531 31.3998 4.00337 33.4481 4 35.5547C4 35.8309 4.22389 36.0547 4.5 36.0547C4.77611 36.0547 5 35.8309 5 35.5547C5.05201 32.4998 6.7116 29.6987 9.36629 28.1862C12.021 26.6736 15.2766 26.6736 17.9314 28.1862C20.5861 29.6989 22.2457 32.4998 22.2977 35.5547C22.2977 35.8309 22.5216 36.0547 22.7977 36.0547C23.0738 36.0547 23.2977 35.8309 23.2977 35.5547C23.2988 33.1273 22.3817 30.7891 20.7301 29.0096C21.8955 28.0978 23.3611 27.6578 24.8359 27.7775C26.3107 27.8969 27.6866 28.567 28.6897 29.6547C29.6928 30.7422 30.2499 32.1677 30.2502 33.6471C30.2502 33.9235 30.4741 34.1471 30.7502 34.1471C31.0263 34.1471 31.2502 33.9235 31.2502 33.6471C31.2482 32.2021 30.7924 30.7938 29.9473 29.6215C29.1024 28.4489 27.9106 27.5712 26.5401 27.1123L26.5398 27.1126ZM9.08492 21.3423C9.08492 20.1314 9.56594 18.9702 10.4222 18.1139C11.2784 17.2579 12.4398 16.7771 13.6507 16.7773C14.8615 16.7775 16.0226 17.2588 16.8786 18.1152C17.7346 18.9717 18.2153 20.1331 18.2148 21.3438C18.2144 22.5547 17.7329 23.7159 16.8764 24.5717C16.0197 25.4275 14.8581 25.9079 13.6474 25.9072C12.4375 25.9052 11.2777 25.4235 10.4223 24.5679C9.5672 23.712 9.08617 22.552 9.08486 21.3422L9.08492 21.3423ZM21.3352 23.7197C21.3352 22.9135 21.6557 22.1402 22.2263 21.5704C22.7968 21.0007 23.5705 20.6811 24.377 20.6822C25.1832 20.6833 25.956 21.005 26.525 21.5764C27.0939 22.1476 27.4125 22.9217 27.4102 23.7282C27.408 24.5344 27.0852 25.3067 26.5131 25.875C25.941 26.4431 25.1665 26.7605 24.3602 26.7572C23.5549 26.7565 22.7826 26.4364 22.2131 25.8668C21.6435 25.2974 21.3234 24.5251 21.3227 23.7197H21.3352Z" fill="currentColor"/>
<path d="M35.9998 15.2199C35.9547 14.5324 35.4148 14.2724 35.0199 14.0824L34.815 13.98H34.8148C34.2054 13.6429 33.8152 13.0132 33.7849 12.3175V9.15741C33.7849 7.31478 32.8019 5.61233 31.2061 4.6909C29.6103 3.7697 27.6443 3.7697 26.0485 4.6909C24.453 5.61233 23.4699 7.31478 23.4699 9.15741V12.3175C23.4394 13.0132 23.0492 13.6429 22.4398 13.98C22.3798 14.0126 22.3173 14.0425 22.2548 14.0699C21.8749 14.255 21.2999 14.53 21.2548 15.2199C21.2409 15.6237 21.3927 16.0159 21.6749 16.305C21.9494 16.6121 22.338 16.7929 22.7498 16.805H26.0449C26.1617 17.642 26.6773 18.3704 27.428 18.7587C28.1786 19.1469 29.071 19.1469 29.8217 18.7587C30.5724 18.3703 31.088 17.642 31.2047 16.805H34.4998C34.9126 16.7936 35.3023 16.6128 35.5773 16.305C35.8605 16.0161 36.0132 15.6242 35.9998 15.2199V15.2199ZM28.625 18.0549C28.2611 18.0545 27.9082 17.9306 27.624 17.7034C27.3397 17.4764 27.1408 17.1596 27.06 16.8049H30.1899C30.1091 17.1596 29.9102 17.4764 29.6258 17.7034C29.3416 17.9306 28.9888 18.0545 28.6249 18.0549H28.625ZM34.8472 15.6224C34.7584 15.7248 34.6343 15.7898 34.4997 15.805H22.75C22.6156 15.788 22.4924 15.721 22.4049 15.6175C22.3131 15.5302 22.2576 15.4114 22.25 15.2849C22.25 15.1925 22.3649 15.1273 22.685 14.9724C22.7576 14.9373 22.8274 14.905 22.8975 14.8675C23.8379 14.3581 24.4362 13.3867 24.4674 12.3175V9.15742C24.4674 7.67216 25.2598 6.29959 26.5462 5.55696C27.8326 4.81433 29.4174 4.81433 30.7038 5.55696C31.9902 6.29959 32.7826 7.67216 32.7826 9.15742V12.3175C32.8139 13.3867 33.4121 14.3581 34.3525 14.8675L34.5824 14.9824C34.9599 15.165 34.9949 15.205 34.9998 15.2849H35C34.9942 15.4128 34.9398 15.5335 34.8476 15.6224H34.8472Z" fill="currentColor"/>
</svg>
