<svg width="40" height="40" viewBox="0 0 40 40" fill="currentColor" xmlns="http://www.w3.org/2000/svg">
<path d="M17.7001 7.20013H9.32522C8.76205 7.20147 8.22231 7.4258 7.82408 7.82401C7.42585 8.22223 7.20151 8.76196 7.2002 9.32516V17.7C7.2002 17.8326 7.25287 17.9598 7.34662 18.0536C7.44037 18.1473 7.56761 18.2 7.7002 18.2H11.2002C11.3328 18.2 11.46 18.1473 11.5538 18.0536C11.6475 17.9598 11.7002 17.8326 11.7002 17.7V17.2C11.7002 16.9348 11.8056 16.6804 11.9931 16.4929C12.1805 16.3054 12.435 16.2 12.7002 16.2C12.9654 16.2 13.2198 16.3054 13.4073 16.4929C13.5948 16.6804 13.7002 16.9348 13.7002 17.2V17.7C13.7002 17.8326 13.7529 17.9598 13.8466 18.0536C13.9404 18.1473 14.0676 18.2 14.2002 18.2H17.7002C17.8328 18.2 17.96 18.1473 18.0538 18.0536C18.1475 17.9598 18.2002 17.8326 18.2002 17.7V14.7C18.9147 14.7 19.575 14.3188 19.9323 13.7C20.2894 13.0813 20.2894 12.3188 19.9323 11.7C19.5749 11.0813 18.9146 10.7 18.2002 10.7V7.70001C18.2002 7.56742 18.1475 7.44019 18.0538 7.34644C17.96 7.25269 17.8328 7.20001 17.7002 7.20001L17.7001 7.20013ZM19.2001 12.7001C19.2001 12.9653 19.0947 13.2198 18.9072 13.4073C18.7197 13.5948 18.4653 13.7001 18.2001 13.7001H17.7001C17.424 13.7001 17.2001 13.924 17.2001 14.2001V17.2001H14.7001C14.7001 16.4856 14.3188 15.8253 13.7001 15.468C13.0813 15.1109 12.3188 15.1109 11.7001 15.468C11.0813 15.8254 10.7001 16.4857 10.7001 17.2001H8.20008V9.32527C8.20008 9.02683 8.31861 8.7407 8.52954 8.52973C8.74048 8.31876 9.02664 8.20026 9.32509 8.20026H17.1999V11.2003C17.1999 11.3329 17.2526 11.4601 17.3464 11.5538C17.4401 11.6476 17.5674 11.7003 17.6999 11.7003H18.1999C18.4651 11.7003 18.7196 11.8056 18.9071 11.9931C19.0946 12.1806 19.1999 12.4351 19.1999 12.7003L19.2001 12.7001Z" fill="currentColor"/>
<path d="M23.2002 13.7001H22.7002C22.4241 13.7001 22.2002 13.924 22.2002 14.2001V17.7001C22.2002 17.8327 22.2529 17.96 22.3466 18.0537C22.4404 18.1475 22.5676 18.2001 22.7002 18.2001H25.7002C25.7002 18.9147 26.0814 19.5749 26.7002 19.9323C27.3189 20.2894 28.0814 20.2894 28.7002 19.9323C29.3189 19.5749 29.7002 18.9146 29.7002 18.2001H32.7002C32.8328 18.2001 32.96 18.1475 33.0537 18.0537C33.1475 17.96 33.2002 17.8327 33.2002 17.7001V9.32528C33.1988 8.76211 32.9745 8.22237 32.5763 7.82414C32.1781 7.42591 31.6384 7.20157 31.0752 7.20026H22.7003C22.4242 7.20026 22.2003 7.42414 22.2003 7.70026V11.2003C22.2003 11.3328 22.253 11.4601 22.3467 11.5538C22.4405 11.6476 22.5677 11.7003 22.7003 11.7003H23.2003C23.4655 11.7003 23.72 11.8056 23.9075 11.9931C24.0949 12.1806 24.2003 12.4351 24.2003 12.7003C24.2003 12.9654 24.0949 13.2199 23.9075 13.4074C23.72 13.5949 23.4655 13.7003 23.2003 13.7003L23.2002 13.7001ZM23.2002 10.7001V8.20014H31.075C31.3735 8.20014 31.6596 8.31867 31.8706 8.52961C32.0815 8.74054 32.2 9.0267 32.2 9.32515V17.2H29.2C28.9239 17.2 28.7 17.4239 28.7 17.7V18.2C28.7 18.4652 28.5947 18.7196 28.4072 18.9071C28.2197 19.0946 27.9652 19.2 27.7 19.2C27.4349 19.2 27.1804 19.0946 26.9929 18.9071C26.8054 18.7196 26.7 18.4652 26.7 18.2V17.7C26.7 17.5674 26.6474 17.4402 26.5536 17.3464C26.4599 17.2527 26.3326 17.2 26.2001 17.2H23.2001V14.7C23.9146 14.7 24.5749 14.3188 24.9322 13.7C25.2893 13.0813 25.2893 12.3187 24.9322 11.7C24.5748 11.0813 23.9145 10.7 23.2001 10.7L23.2002 10.7001Z" fill="currentColor"/>
<path d="M22.2002 25.7001C21.4857 25.7001 20.8254 26.0814 20.4681 26.7001C20.1109 27.3189 20.1109 28.0814 20.4681 28.7001C20.8254 29.3189 21.4857 29.7001 22.2002 29.7001V32.7001C22.2002 32.8327 22.2528 32.96 22.3466 33.0537C22.4403 33.1474 22.5676 33.2001 22.7002 33.2001H31.075C31.6382 33.1988 32.1779 32.9745 32.5762 32.5762C32.9744 32.178 33.1987 31.6383 33.2 31.0751V22.7003C33.2 22.5677 33.1474 22.4404 33.0536 22.3467C32.9599 22.2529 32.8326 22.2003 32.7 22.2003H29.2C28.9239 22.2003 28.7 22.4241 28.7 22.7003V23.2003C28.7 23.4654 28.5947 23.7199 28.4072 23.9074C28.2197 24.0949 27.9652 24.2003 27.7 24.2003C27.4349 24.2003 27.1804 24.0949 26.9929 23.9074C26.8054 23.7199 26.7 23.4654 26.7 23.2003V22.7003C26.7 22.5677 26.6474 22.4404 26.5536 22.3467C26.4599 22.2529 26.3326 22.2003 26.2 22.2003H22.7001C22.4239 22.2003 22.2001 22.4241 22.2001 22.7003L22.2002 25.7001ZM22.7002 26.7001C22.8328 26.7001 22.96 26.6475 23.0537 26.5537C23.1475 26.46 23.2002 26.3327 23.2002 26.2001V23.2001H25.7002C25.7002 23.9147 26.0814 24.5749 26.7002 24.9323C27.3189 25.2894 28.0814 25.2894 28.7002 24.9323C29.3189 24.5749 29.7002 23.9146 29.7002 23.2001H32.2002V31.075C32.2002 31.3734 32.0816 31.6596 31.8707 31.8705C31.6598 32.0815 31.3736 32.2 31.0752 32.2H23.2003V29.2C23.2003 29.0674 23.1476 28.9402 23.0539 28.8464C22.9601 28.7527 22.8329 28.7 22.7003 28.7H22.2003C21.9351 28.7 21.6807 28.5946 21.4932 28.4071C21.3057 28.2196 21.2003 27.9652 21.2003 27.7C21.2003 27.4348 21.3057 27.1804 21.4932 26.9929C21.6807 26.8054 21.9351 26.7 22.2003 26.7L22.7002 26.7001Z" fill="currentColor"/>
<path d="M7.20007 31.075C7.2014 31.6382 7.42573 32.1779 7.82395 32.5761C8.22217 32.9744 8.7619 33.1987 9.3251 33.2H17.7C17.8325 33.2 17.9598 33.1474 18.0535 33.0536C18.1473 32.9599 18.2 32.8326 18.2 32.7V29.2C18.2 29.0674 18.1473 28.9402 18.0535 28.8465C17.9598 28.7527 17.8325 28.7 17.7 28.7H17.2C16.9348 28.7 16.6803 28.5947 16.4928 28.4072C16.3053 28.2197 16.2 27.9652 16.2 27.7C16.2 27.4348 16.3053 27.1804 16.4928 26.9929C16.6803 26.8054 16.9348 26.7 17.2 26.7H17.7C17.8325 26.7 17.9598 26.6473 18.0535 26.5536C18.1473 26.4598 18.2 26.3326 18.2 26.2V22.7C18.2 22.5674 18.1473 22.4402 18.0535 22.3464C17.9598 22.2527 17.8325 22.2 17.7 22.2H14.7C14.7 21.4855 14.3187 20.8252 13.7 20.4679C13.0812 20.1108 12.3187 20.1108 11.7 20.4679C11.0812 20.8253 10.7 21.4856 10.7 22.2H7.69995C7.42384 22.2 7.19995 22.4239 7.19995 22.7L7.20007 31.075ZM8.20007 23.2001H11.2001C11.3327 23.2001 11.4599 23.1475 11.5536 23.0537C11.6474 22.96 11.7001 22.8327 11.7001 22.7001V22.2001C11.7001 21.935 11.8054 21.6805 11.9929 21.493C12.1804 21.3055 12.4349 21.2001 12.7001 21.2001C12.9652 21.2001 13.2197 21.3055 13.4072 21.493C13.5947 21.6805 13.7001 21.935 13.7001 22.2001V22.7001C13.7001 22.8327 13.7527 22.96 13.8465 23.0537C13.9402 23.1475 14.0675 23.2001 14.2001 23.2001H17.2001V25.7001C16.4856 25.7001 15.8253 26.0814 15.468 26.7001C15.1108 27.3189 15.1108 28.0814 15.468 28.7001C15.8253 29.3189 16.4856 29.7001 17.2001 29.7001V32.2001H9.32521C9.02677 32.2001 8.74064 32.0816 8.52967 31.8707C8.31869 31.6597 8.2002 31.3736 8.2002 31.0751L8.20007 23.2001Z" fill="currentColor"/>
</svg>
