<svg width="45" height="45" viewBox="0 0 45 45" fill="none" xmlns="http://www.w3.org/2000/svg">
<path d="M22.3589 44.6411C34.4895 44.6411 44.3589 34.7718 44.3589 22.6411C44.3589 10.5105 34.4895 0.641113 22.3589 0.641113C10.2282 0.641113 0.358887 10.5105 0.358887 22.6411C0.358887 34.7718 10.2282 44.6411 22.3589 44.6411ZM22.3589 1.55804C33.9843 1.55804 43.442 11.0165 43.442 22.6411C43.442 34.2658 33.9835 43.7242 22.3589 43.7242C10.7342 43.7242 1.27581 34.2658 1.27581 22.6411C1.27581 11.0165 10.7342 1.55804 22.3589 1.55804Z" fill="black"/>
<path d="M22.3621 23.9682C25.489 23.9682 28.0327 21.4245 28.0327 18.2966V15.4009H27.1159V18.2966C27.1159 20.9183 24.9829 23.0515 22.3621 23.0515C19.7413 23.0515 17.6082 20.9184 17.6082 18.2966V15.4009H16.6914V18.2966C16.6914 21.4235 19.2351 23.9682 22.3621 23.9682Z" fill="black"/>
<path d="M19.008 24.9088H19.9247V23.4166C21.4409 24.1406 23.2843 24.1406 24.7995 23.4166V24.9088H25.7163L25.716 21.7703L25.0027 22.2478C23.4344 23.2984 21.2902 23.2984 19.7219 22.2478L19.0086 21.7703L19.0089 24.9088H19.008Z" fill="black"/>
<path d="M27.5909 16.6508C27.6302 16.6508 27.6698 16.6462 27.7091 16.6351C27.8751 16.5912 28.0025 16.4565 28.0381 16.2886L28.7127 13.1307C28.8604 12.4386 28.6897 11.7263 28.2453 11.1763C27.8923 10.7398 27.4028 10.4513 26.862 10.3503C26.7666 9.66099 26.4376 9.05971 25.9262 8.62608C25.313 8.10646 24.5028 7.88456 23.7134 8.01654L18.2517 8.92686C17.5129 9.04963 16.8684 9.45477 16.4375 10.068C16.0066 10.6803 15.8436 11.4236 15.9765 12.1609L16.7143 16.2748C16.7456 16.447 16.873 16.5872 17.0415 16.6351C17.2121 16.6818 17.3926 16.6287 17.5089 16.4976L19.2286 14.5486C19.3029 14.4652 19.3431 14.3571 19.3431 14.2451V13.5447H25.3765V14.2451C25.3765 14.3587 25.4186 14.4679 25.4938 14.5514L27.2481 16.5004C27.3381 16.5967 27.4627 16.6508 27.591 16.6508L27.5909 16.6508ZM24.1626 8.8949C24.588 8.8949 25.0033 9.0453 25.3332 9.3249C25.7402 9.66957 25.974 10.1739 25.974 10.7073C25.974 10.9602 26.1794 11.2269 26.4323 11.2269C26.8613 11.2269 27.2628 11.4184 27.5332 11.752C27.8036 12.0857 27.9073 12.5184 27.8174 12.9383L27.3306 15.2181L26.2947 14.0678V13.085C26.2947 12.8321 26.0894 12.6268 25.8365 12.6268H18.8863C18.6334 12.6268 18.4281 12.8321 18.4281 13.085V14.0705L17.45 15.1779L16.8788 11.9961C16.7889 11.5019 16.8981 11.0041 17.1869 10.5934C17.4748 10.1837 17.9067 9.91145 18.4014 9.82981L23.8631 8.91948C23.9637 8.90321 24.0635 8.89493 24.1626 8.89493V8.8949Z" fill="black"/>
<path d="M32.9007 37.3041C33.1536 37.3041 33.3589 37.0988 33.3589 36.8459V31.7832C33.3589 30.4604 32.6539 29.2164 31.5202 28.5363L27.5885 26.1767C27.3703 26.0457 27.0898 26.1163 26.9596 26.3336C26.8295 26.5509 26.9001 26.8323 27.1165 26.9625L31.0481 29.322C31.9078 29.8367 32.4421 30.7811 32.4421 31.7829V36.8456C32.4421 37.0988 32.6475 37.3041 32.9007 37.3041L32.9007 37.3041Z" fill="black"/>
<path d="M11.8167 37.3041C12.0696 37.3041 12.275 37.0988 12.275 36.8459V31.7832C12.275 30.7814 12.8093 29.837 13.6693 29.322L17.6019 26.9625C17.8192 26.8323 17.8889 26.5509 17.7587 26.3336C17.6286 26.1163 17.3481 26.0457 17.1298 26.1767L13.1973 28.5363C12.0635 29.2161 11.3585 30.4601 11.3585 31.7829V36.8456C11.3585 37.0988 11.5639 37.3041 11.8168 37.3041L11.8167 37.3041Z" fill="black"/>
<path d="M28.317 37.3042C28.5699 37.3042 28.7752 37.0989 28.7752 36.846V34.6991C28.7752 33.9812 29.0419 33.2937 29.526 32.763L30.2199 32.0031C30.3906 31.8162 30.3777 31.5255 30.1904 31.3549C30.0035 31.1842 29.7138 31.1962 29.5422 31.3843L28.8483 32.1443C28.2108 32.8447 27.8588 33.751 27.8588 34.6991V36.846C27.8588 37.0989 28.0641 37.3042 28.317 37.3042H28.317Z" fill="black"/>
<path d="M16.4007 37.3041C16.6536 37.3041 16.8589 37.0988 16.8589 36.8459V34.699C16.8589 33.7513 16.5068 32.8445 15.8679 32.1451L15.1739 31.3842C15.0024 31.1964 14.7139 31.1854 14.5257 31.3548C14.3388 31.5254 14.3259 31.8149 14.4962 32.003L15.1902 32.7629C15.6754 33.2936 15.9421 33.9811 15.9421 34.699V36.8459C15.9421 37.0988 16.1475 37.3041 16.4007 37.3041L16.4007 37.3041Z" fill="black"/>
<path d="M25.1323 29.802C25.1406 29.802 25.1498 29.802 25.1581 29.8011C25.2882 29.7937 25.4091 29.7314 25.4908 29.6295L27.7101 26.8555C27.8504 26.6806 27.843 26.4292 27.6926 26.2626L26.1949 24.5978C26.0592 24.4465 25.8401 24.4035 25.6578 24.4907L22.1626 26.1555C22.0279 26.2196 21.9333 26.3451 21.9079 26.4918C21.8821 26.6385 21.93 26.7889 22.0352 26.8933L24.8092 29.6672C24.8948 29.7544 25.0111 29.802 25.1324 29.802L25.1323 29.802ZM26.751 26.5864L25.0946 28.6571L23.1411 26.7036L25.7416 25.4652L26.751 26.5864Z" fill="black"/>
<path d="M19.5853 29.8022C19.7062 29.8022 19.8237 29.7547 19.9097 29.6684L22.6836 26.8945C22.7889 26.7892 22.8368 26.6397 22.811 26.493C22.7862 26.3463 22.691 26.2217 22.5563 26.1566L19.0611 24.4918C18.8779 24.4047 18.6596 24.4479 18.524 24.599L17.0263 26.2637C16.8759 26.4307 16.8685 26.6818 17.0088 26.8567L19.2281 29.6307C19.3097 29.7326 19.4307 29.7949 19.5608 29.8022C19.5682 29.8013 19.5761 29.8022 19.5854 29.8022L19.5853 29.8022ZM21.5763 26.7038L19.6227 28.6574L17.9663 26.5866L18.9755 25.4654L21.5763 26.7038Z" fill="black"/>
<path d="M23.2757 37.3041C23.5286 37.3041 23.7339 37.0987 23.7339 36.8458V27.6828C23.7339 27.4299 23.5286 27.2246 23.2757 27.2246C23.0228 27.2246 22.8174 27.4299 22.8174 27.6828V36.8458C22.8171 37.0987 23.0225 37.3041 23.2757 37.3041Z" fill="black"/>
<path d="M21.4419 37.3041C21.6948 37.3041 21.9001 37.0987 21.9001 36.8458L21.9004 27.6828C21.9004 27.4299 21.6951 27.2246 21.4422 27.2246C21.1893 27.2246 20.9839 27.4299 20.9839 27.6828V36.8458C20.9836 37.0987 21.189 37.3041 21.4419 37.3041H21.4419Z" fill="black"/>
</svg>
