<svg width="42" height="42" viewBox="0 0 42 42" fill="currentColor" xmlns="http://www.w3.org/2000/svg">
<path d="M29.5019 30.2461C30.7833 29.4234 31.6443 28.0848 31.8614 26.5776C32.0787 25.0705 31.6307 23.5435 30.6336 22.3924C29.6366 21.2415 28.1892 20.5802 26.6663 20.5802C25.1438 20.5802 23.6961 21.2415 22.699 22.3924C21.7023 23.5435 21.2543 25.0705 21.4713 26.5776C21.6887 28.0848 22.5494 29.4234 23.8308 30.2461C22.8007 30.5856 21.841 31.1111 21.0001 31.7962C19.5939 30.558 17.928 29.6509 16.1251 29.1411C18.0461 28.1289 19.4108 26.3078 19.8429 24.1802C20.2753 22.0523 19.7289 19.8432 18.3549 18.1619C16.9809 16.4809 14.9244 15.5059 12.7533 15.5059C10.5822 15.5059 8.52569 16.4809 7.1517 18.1619C5.77772 19.8432 5.23127 22.0523 5.66369 24.1802C6.09576 26.3078 7.46051 28.1289 9.38146 29.1411C6.74343 29.8784 4.41881 31.4579 2.76134 33.6386C1.1041 35.8195 0.204578 38.4822 0.200195 41.2209C0.200195 41.5799 0.491247 41.8709 0.850195 41.8709C1.20914 41.8709 1.5002 41.5799 1.5002 41.2209C1.56781 37.2495 3.72528 33.6081 7.17637 31.6418C10.6275 29.6755 14.8597 29.6755 18.3111 31.6418C21.7621 33.6083 23.9196 37.2495 23.9872 41.2209C23.9872 41.5799 24.2783 41.8709 24.6372 41.8709C24.9962 41.8709 25.2872 41.5799 25.2872 41.2209C25.2887 38.0653 24.0964 35.0256 21.9493 32.7122C23.4643 31.5269 25.3696 30.9549 27.2868 31.1105C29.2041 31.2657 30.9927 32.1368 32.2968 33.5509C33.6008 34.9646 34.3251 36.8178 34.3254 38.741C34.3254 39.1003 34.6165 39.391 34.9754 39.391C35.3344 39.391 35.6254 39.1003 35.6254 38.741C35.6228 36.8624 35.0303 35.0317 33.9316 33.5077C32.8333 31.9833 31.284 30.8424 29.5023 30.2458L29.5019 30.2461ZM6.81058 22.7447C6.81058 21.1705 7.43592 19.661 8.54902 18.5479C9.66212 17.4351 11.172 16.8099 12.7462 16.8102C14.3201 16.8105 15.8296 17.4362 16.9424 18.5496C18.0552 19.663 18.68 21.1728 18.6794 22.7467C18.6789 24.3209 18.0529 25.8305 16.9395 26.943C15.8258 28.0556 14.3157 28.68 12.7418 28.6791C11.169 28.6765 9.66122 28.0503 8.54924 26.938C7.43756 25.8254 6.81222 24.3174 6.81051 22.7446L6.81058 22.7447ZM22.736 25.8354C22.736 24.7873 23.1527 23.782 23.8944 23.0413C24.6361 22.3007 25.6418 21.8852 26.6903 21.8866C27.7384 21.8881 28.743 22.3062 29.4827 23.0491C30.2223 23.7916 30.6364 24.798 30.6335 25.8464C30.6306 26.8945 30.211 27.8985 29.4673 28.6373C28.7235 29.3758 27.7167 29.7884 26.6685 29.7841C25.6215 29.7832 24.6175 29.3671 23.8773 28.6266C23.1367 27.8863 22.7207 26.8824 22.7198 25.8354H22.736Z" fill="currentColor"/>
<path d="M41.8 14.7859C41.7414 13.8921 41.0395 13.554 40.5262 13.3071L40.2598 13.1739H40.2595C39.4673 12.7358 38.9601 11.9172 38.9207 11.0127V6.90459C38.9207 4.50917 37.6427 2.29598 35.5682 1.09812C33.4937 -0.0994387 30.9379 -0.0994387 28.8634 1.09812C26.7891 2.29598 25.5112 4.50917 25.5112 6.90459V11.0127C25.4715 11.9172 24.9642 12.7357 24.1721 13.1739C24.094 13.2163 24.0128 13.2552 23.9315 13.2909C23.4376 13.5314 22.6901 13.8889 22.6315 14.7859C22.6135 15.3108 22.8108 15.8207 23.1776 16.1964C23.5345 16.5957 24.0397 16.8307 24.5751 16.8464H28.8587C29.0105 17.9345 29.6807 18.8815 30.6566 19.3863C31.6325 19.8909 32.7926 19.8909 33.7685 19.3863C34.7444 18.8814 35.4147 17.9345 35.5665 16.8464H39.8501C40.3866 16.8316 40.8933 16.5966 41.2507 16.1964C41.619 15.8209 41.8175 15.3114 41.8 14.7859V14.7859ZM32.2127 18.4714C31.7397 18.4708 31.281 18.3098 30.9115 18.0144C30.5419 17.7192 30.2833 17.3075 30.1783 16.8464H34.2471C34.1421 17.3075 33.8835 17.7192 33.5138 18.0144C33.1444 18.3098 32.6857 18.4708 32.2126 18.4714H32.2127ZM40.3017 15.309C40.1862 15.4422 40.0249 15.5267 39.8499 15.5464H24.5753C24.4006 15.5244 24.2404 15.4373 24.1267 15.3027C24.0074 15.1892 23.9351 15.0348 23.9253 14.8703C23.9253 14.7502 24.0747 14.6654 24.4908 14.464C24.5851 14.4185 24.676 14.3764 24.7671 14.3277C25.9896 13.6655 26.7673 12.4026 26.8079 11.0127V6.90459C26.8079 4.97376 27.8381 3.18942 29.5104 2.224C31.1827 1.25859 33.2429 1.25859 34.9153 2.224C36.5876 3.18942 37.6177 4.97376 37.6177 6.90459V11.0127C37.6583 12.4026 38.436 13.6655 39.6585 14.3277L39.9574 14.4771C40.4481 14.7145 40.4937 14.7664 40.5001 14.8703H40.5004C40.4928 15.0366 40.422 15.1936 40.3022 15.309H40.3017Z" fill="currentColor"/>
</svg>
