<svg width="40" height="40" viewBox="0 0 40 40" fill="currentColor" xmlns="http://www.w3.org/2000/svg">
<path d="M19.8975 36.1025C28.7197 36.1025 35.8975 28.9248 35.8975 20.1025C35.8975 11.2803 28.7197 4.10254 19.8975 4.10254C11.0752 4.10254 3.89746 11.2803 3.89746 20.1025C3.89746 28.9248 11.0752 36.1025 19.8975 36.1025ZM19.8975 4.7694C28.3523 4.7694 35.2306 11.6483 35.2306 20.1025C35.2306 28.5568 28.3517 35.4357 19.8975 35.4357C11.4432 35.4357 4.56431 28.5568 4.56431 20.1025C4.56431 11.6483 11.4432 4.7694 19.8975 4.7694Z" fill="black"/>
<path d="M19.8997 21.0677C22.1738 21.0677 24.0238 19.2177 24.0238 16.9429V14.8369H23.3571V16.9429C23.3571 18.8496 21.8057 20.401 19.8997 20.401C17.9937 20.401 16.4423 18.8497 16.4423 16.9429V14.8369H15.7756V16.9429C15.7756 19.217 17.6256 21.0677 19.8997 21.0677Z" fill="black"/>
<path d="M17.4603 21.7516H18.127V20.6663C19.2297 21.1929 20.5704 21.1929 21.6724 20.6663V21.7516H22.3391L22.3389 19.469L21.8201 19.8163C20.6795 20.5804 19.1201 20.5804 17.9795 19.8163L17.4608 19.469L17.461 21.7516H17.4603Z" fill="black"/>
<path d="M23.7027 15.746C23.7312 15.746 23.76 15.7427 23.7886 15.7346C23.9094 15.7027 24.002 15.6047 24.0279 15.4826L24.5185 13.186C24.6259 12.6826 24.5018 12.1646 24.1786 11.7646C23.9219 11.4471 23.5658 11.2373 23.1726 11.1639C23.1031 10.6625 22.8639 10.2252 22.492 9.90987C22.046 9.53197 21.4567 9.37059 20.8826 9.46657L16.9105 10.1286C16.3732 10.2179 15.9045 10.5126 15.5911 10.9585C15.2777 11.4038 15.1591 11.9445 15.2558 12.4806L15.7924 15.4726C15.8152 15.5978 15.9078 15.6998 16.0303 15.7346C16.1545 15.7685 16.2857 15.7299 16.3703 15.6346L17.621 14.2172C17.675 14.1565 17.7042 14.0779 17.7042 13.9964V13.4871H22.0922V13.9964C22.0922 14.079 22.1228 14.1585 22.1775 14.2192L23.4533 15.6366C23.5187 15.7067 23.6094 15.746 23.7027 15.746L23.7027 15.746ZM21.2093 10.1054C21.5187 10.1054 21.8207 10.2148 22.0607 10.4181C22.3566 10.6688 22.5267 11.0355 22.5267 11.4235C22.5267 11.6074 22.6761 11.8014 22.86 11.8014C23.172 11.8014 23.464 11.9407 23.6607 12.1833C23.8574 12.4259 23.9328 12.7407 23.8674 13.046L23.5134 14.7041L22.76 13.8675V13.1527C22.76 12.9688 22.6107 12.8195 22.4267 12.8195H17.372C17.1881 12.8195 17.0388 12.9688 17.0388 13.1527V13.8695L16.3274 14.6748L15.912 12.3608C15.8466 12.0014 15.9261 11.6394 16.1361 11.3407C16.3455 11.0427 16.6596 10.8447 17.0194 10.7853L20.9915 10.1233C21.0647 10.1114 21.1372 10.1054 21.2093 10.1054V10.1054Z" fill="currentColor"/>
<path d="M27.5643 30.7665C27.7483 30.7665 27.8976 30.6172 27.8976 30.4333V26.7513C27.8976 25.7893 27.3849 24.8846 26.5603 24.39L23.701 22.6739C23.5422 22.5786 23.3382 22.6299 23.2436 22.788C23.1489 22.946 23.2003 23.1507 23.3576 23.2453L26.217 24.9614C26.8422 25.3357 27.2309 26.0225 27.2309 26.7511V30.4331C27.2309 30.6172 27.3802 30.7665 27.5643 30.7665L27.5643 30.7665Z" fill="currentColor"/>
<path d="M12.2307 30.7665C12.4146 30.7665 12.5639 30.6172 12.5639 30.4333V26.7513C12.5639 26.0228 12.9525 25.3359 13.578 24.9614L16.438 23.2453C16.5961 23.1507 16.6467 22.946 16.5521 22.788C16.4575 22.6299 16.2534 22.5786 16.0947 22.6739L13.2347 24.39C12.4101 24.8844 11.8974 25.789 11.8974 26.7511V30.433C11.8974 30.6172 12.0467 30.7665 12.2307 30.7665L12.2307 30.7665Z" fill="currentColor"/>
<path d="M24.2306 30.7665C24.4146 30.7665 24.5639 30.6172 24.5639 30.4333V28.8719C24.5639 28.3498 24.7579 27.8498 25.1099 27.4639L25.6146 26.9112C25.7387 26.7752 25.7293 26.5639 25.5931 26.4398C25.4572 26.3156 25.2465 26.3244 25.1217 26.4612L24.617 27.0139C24.1534 27.5232 23.8974 28.1824 23.8974 28.8719V30.4333C23.8974 30.6172 24.0467 30.7665 24.2306 30.7665H24.2306Z" fill="currentColor"/>
<path d="M15.5643 30.7666C15.7483 30.7666 15.8976 30.6173 15.8976 30.4333V28.872C15.8976 28.1827 15.6416 27.5233 15.1768 27.0146L14.6722 26.4612C14.5474 26.3246 14.3376 26.3166 14.2007 26.4398C14.0648 26.5639 14.0554 26.7744 14.1793 26.9112L14.684 27.4639C15.0369 27.8499 15.2309 28.3499 15.2309 28.872V30.4334C15.2309 30.6173 15.3802 30.7666 15.5643 30.7666L15.5643 30.7666Z" fill="currentColor"/>
<path d="M21.9146 25.3105C21.9206 25.3105 21.9273 25.3105 21.9334 25.3098C22.028 25.3045 22.1159 25.2592 22.1753 25.1851L23.7894 23.1676C23.8914 23.0404 23.886 22.8576 23.7767 22.7364L22.6874 21.5257C22.5887 21.4156 22.4294 21.3844 22.2968 21.4478L19.7548 22.6585C19.6568 22.7051 19.5881 22.7964 19.5696 22.9031C19.5508 23.0098 19.5856 23.1192 19.6622 23.1951L21.6796 25.2125C21.7419 25.2759 21.8265 25.3105 21.9147 25.3105L21.9146 25.3105ZM23.0919 22.9719L21.8872 24.4779L20.4664 23.0571L22.3577 22.1565L23.0919 22.9719Z" fill="currentColor"/>
<path d="M17.8803 25.3105C17.9683 25.3105 18.0538 25.2759 18.1163 25.2132L20.1337 23.1958C20.2103 23.1192 20.2451 23.0105 20.2263 22.9038C20.2083 22.7971 20.1391 22.7065 20.0411 22.6592L17.4991 21.4484C17.3659 21.385 17.2072 21.4165 17.1085 21.5263L16.0192 22.7371C15.9099 22.8585 15.9045 23.0411 16.0065 23.1683L17.6206 25.1858C17.68 25.2599 17.7679 25.3052 17.8625 25.3105C17.8679 25.3099 17.8737 25.3105 17.8804 25.3105L17.8803 25.3105ZM19.3283 23.0572L17.9076 24.4779L16.7029 22.9719L17.4369 22.1565L19.3283 23.0572Z" fill="currentColor"/>
<path d="M20.5643 30.7665C20.7483 30.7665 20.8976 30.6172 20.8976 30.4333V23.7693C20.8976 23.5854 20.7483 23.436 20.5643 23.436C20.3804 23.436 20.2311 23.5854 20.2311 23.7693V30.4333C20.2308 30.6172 20.3802 30.7665 20.5643 30.7665Z" fill="black"/>
<path d="M19.2306 30.7665C19.4145 30.7665 19.5639 30.6172 19.5639 30.4333L19.5641 23.7693C19.5641 23.5854 19.4148 23.436 19.2308 23.436C19.0469 23.436 18.8976 23.5854 18.8976 23.7693V30.4333C18.8973 30.6172 19.0467 30.7665 19.2306 30.7665H19.2306Z" fill="black"/>
</svg>
